<?xml version="1.0" encoding="utf-8"?>
<!-- Generator: Adobe Illustrator 25.2.1, SVG Export Plug-In . SVG Version: 6.00 Build 0)  -->
<svg version="1.1" id="Capa_1" xmlns="http://www.w3.org/2000/svg" xmlns:xlink="http://www.w3.org/1999/xlink" x="0px" y="0px"
	 viewBox="0 0 40 40" style="enable-background:new 0 0 40 40;" xml:space="preserve">
<g>
	<g>
		<path style="fill:#333333;" d="M39.5,37.2L28.1,25.8c2.2-2.7,3.5-6.2,3.5-9.9C31.7,7.1,24.6,0,15.8,0S0,7.1,0,15.8
			s7.1,15.8,15.8,15.8c3.8,0,7.2-1.3,9.9-3.5l11.4,11.4c0.3,0.3,0.8,0.5,1.2,0.5s0.9-0.2,1.2-0.5C40.2,38.9,40.2,37.8,39.5,37.2z
			 M15.8,28.3c-6.9,0-12.5-5.6-12.5-12.5S8.9,3.3,15.8,3.3s12.5,5.6,12.5,12.5S22.7,28.3,15.8,28.3z"/>
	</g>
</g>
</svg>
