<?xml version="1.0" encoding="utf-8"?>
<!-- Generator: Adobe Illustrator 25.2.1, SVG Export Plug-In . SVG Version: 6.00 Build 0)  -->
<svg version="1.1" id="Capa_1" xmlns="http://www.w3.org/2000/svg" xmlns:xlink="http://www.w3.org/1999/xlink" x="0px" y="0px"
	 viewBox="0 0 72.3 50" style="enable-background:new 0 0 72.3 50;" xml:space="preserve">
<g>
	<path style="fill:#002E6D;" d="M72.3,23.6C72.3,10.6,56.1,0,36.1,0S0,10.6,0,23.6C0,24,0,24.9,0,25c0,13.8,14.1,25,36.1,25
		c22.1,0,36.1-11.2,36.1-25C72.3,24.5,72.3,24.2,72.3,23.6z"/>
	<path style="fill:#FFE800;" d="M70.9,23.6c0,12.3-15.5,22.2-34.7,22.2S1.4,35.9,1.4,23.6S17,1.4,36.2,1.4
		C55.3,1.4,70.9,11.3,70.9,23.6z"/>
	<g>
		<path style="fill:#FFFFFF;" d="M24.6,16.6c0,0-0.4,0.4-0.1,0.7c0.5,0.7,2.2,1.1,3.9,0.7c1-0.2,2.3-1.3,3.6-2.3
			c1.4-1.1,2.7-2.2,4.1-2.6c1.4-0.5,2.4-0.3,3-0.1c0.7,0.2,1.5,0.7,2.7,1.6c2.4,1.8,11.9,10.1,13.6,11.6c1.3-0.6,7.2-3.1,15.3-4.9
			C70,17,67.4,13.1,63.4,9.9c-5.5,2.3-12.2,3.5-18.8,0.3c0,0-3.6-1.7-7.1-1.6c-5.2,0.1-7.5,2.4-9.9,4.8L24.6,16.6z"/>
		<path style="fill:#FFFFFF;" d="M55,27.1c-0.1-0.1-11.2-9.8-13.8-11.7c-1.4-1.1-2.3-1.4-3.1-1.5c-0.4-0.1-1,0-1.5,0.1
			c-1.2,0.3-2.7,1.3-4.1,2.4c-1.4,1.1-2.7,2.2-4,2.5c-1.6,0.4-3.5-0.1-4.4-0.7c-0.4-0.3-0.6-0.5-0.7-0.8c-0.3-0.8,0.3-1.3,0.4-1.4
			l3.1-3.3c0.4-0.4,0.7-0.7,1.1-1c-1,0.1-1.9,0.4-2.8,0.6c-1.1,0.3-2.2,0.6-3.3,0.6c-0.5,0-2.9-0.4-3.3-0.5
			c-2.8-0.8-5.2-1.5-8.9-3.2c-4.4,3.3-7.3,7.3-8.2,11.8c0.6,0.2,1.6,0.5,2.1,0.6c9.9,2.2,13,4.4,13.5,4.9c0.6-0.7,1.5-1.1,2.5-1.1
			c1.1,0,2.1,0.5,2.7,1.4c0.6-0.4,1.3-0.8,2.3-0.8c0.5,0,0.9,0.1,1.4,0.3c1.1,0.4,1.7,1.1,2,1.8c0.4-0.2,0.8-0.3,1.4-0.3
			c0.5,0,1.1,0.1,1.6,0.4c1.8,0.8,2.1,2.6,2,3.9c0.1,0,0.3,0,0.4,0c2.2,0,3.9,1.8,3.9,3.9c0,0.7-0.2,1.3-0.5,1.8
			c0.6,0.3,2.1,1.1,3.4,0.9c1-0.1,1.4-0.5,1.6-0.7c0.1-0.1,0.2-0.3,0.1-0.4l-2.8-3.1c0,0-0.5-0.4-0.3-0.6c0.1-0.2,0.4,0.1,0.7,0.3
			c1.4,1.2,3.1,3,3.1,3c0,0,0.1,0.3,0.8,0.4c0.5,0.1,1.5,0,2.2-0.5c0.2-0.1,0.3-0.3,0.5-0.5l0,0c0.7-0.9-0.1-1.8-0.1-1.8l-3.3-3.6
			c0,0-0.5-0.4-0.3-0.6c0.1-0.1,0.4,0.1,0.7,0.3c1,0.9,2.5,2.3,3.9,3.7c0.3,0.2,1.5,0.9,3.1-0.1c1-0.7,1.2-1.4,1.2-2
			c-0.1-0.8-0.7-1.4-0.7-1.4l-4.4-4.5c0,0-0.5-0.4-0.3-0.6c0.1-0.2,0.4,0.1,0.7,0.3c1.4,1.2,5.2,4.7,5.2,4.7c0,0,1.4,1,3-0.1
			c0.6-0.4,1-0.9,1-1.6C55.8,27.8,55,27.1,55,27.1z"/>
		<path style="fill:#FFFFFF;" d="M33.5,32.8c-0.7,0-1.4,0.4-1.6,0.3c0,0,0-0.3,0.1-0.5c0.1-0.1,1-2.9-1.2-3.8
			c-1.7-0.7-2.7,0.1-3.1,0.5c-0.1,0.1-0.1,0.1-0.1,0c0-0.5-0.3-1.8-1.7-2.3c-2.1-0.7-3.4,0.8-3.8,1.3c-0.1-1.2-1.2-2.1-2.4-2.1
			c-1.3,0-2.4,1.1-2.4,2.4s1.1,2.4,2.4,2.4c0.7,0,1.2-0.3,1.7-0.7c0,0,0,0,0,0.1c-0.1,0.6-0.3,2.8,2,3.6c0.9,0.4,1.7,0.1,2.3-0.4
			c0.2-0.1,0.2-0.1,0.2,0.1c-0.1,0.6,0,1.8,1.7,2.5c1.3,0.5,2,0,2.5-0.5c0.2-0.2,0.3-0.2,0.3,0.1c0.1,1.6,1.4,2.9,3,2.9
			c1.7,0,3-1.4,3-3C36.5,34.1,35.2,32.8,33.5,32.8z"/>
	</g>
	<path style="fill:#002E6D;" d="M55.5,25.9c-3.4-3-11.3-9.9-13.5-11.5c-1.2-0.9-2.1-1.4-2.8-1.6c-0.3-0.1-0.8-0.2-1.4-0.2
		c-0.5,0-1.1,0.1-1.7,0.3c-1.4,0.4-2.8,1.6-4.1,2.6l-0.1,0.1c-1.2,1-2.5,2-3.5,2.2C28,17.9,27.5,18,27.1,18c-1.1,0-2.1-0.3-2.4-0.8
		c-0.1-0.1,0-0.2,0.1-0.4l0,0l3-3.3c2.3-2.3,4.6-4.6,9.7-4.7c0.1,0,0.2,0,0.3,0c3.2,0,6.4,1.4,6.8,1.6c3,1.4,6.1,2.2,9.2,2.2
		c3.3,0,6.6-0.8,10.1-2.4c-0.4-0.3-0.8-0.7-1.2-1c-3.1,1.3-6,2-8.9,2c-2.9,0-5.8-0.7-8.6-2.1c-0.1-0.1-3.7-1.7-7.3-1.7
		c-0.1,0-0.2,0-0.3,0c-4.3,0.1-6.8,1.6-8.4,3c-1.6,0-3,0.4-4.2,0.8c-1.1,0.3-2,0.6-3,0.6c-0.4,0-1,0-1.1,0c-1,0-6.4-1.3-10.6-2.9
		C9.9,9,9.5,9.4,9.1,9.7c4.4,1.8,9.8,3.2,11.5,3.3c0.5,0,1,0.1,1.5,0.1c1.1,0,2.2-0.3,3.3-0.6c0.7-0.2,1.3-0.4,2.1-0.5
		c-0.2,0.2-0.4,0.4-0.6,0.6l-3.1,3.3c-0.3,0.3-0.8,0.9-0.4,1.7c0.1,0.3,0.4,0.6,0.8,0.9c0.7,0.5,2,0.8,3.3,0.8c0.5,0,0.9,0,1.3-0.1
		c1.3-0.3,2.6-1.4,4-2.5c1.1-0.9,2.7-2.1,4-2.4c0.4-0.1,0.8-0.1,1.1-0.1c0.1,0,0.2,0,0.3,0c0.8,0.1,1.6,0.4,3,1.4
		c2.5,1.9,13.7,11.6,13.8,11.7c0,0,0.7,0.6,0.7,1.6c0,0.6-0.3,1.1-0.9,1.4c-0.5,0.3-1,0.5-1.4,0.5c-0.8,0-1.3-0.4-1.3-0.4
		c0,0-3.9-3.5-5.2-4.7c-0.2-0.2-0.4-0.4-0.7-0.4c-0.1,0-0.2,0-0.3,0.1c-0.2,0.3,0,0.7,0.3,0.9l4.4,4.5c0,0,0.5,0.5,0.6,1.2
		c0,0.8-0.3,1.4-1,1.8c-0.5,0.4-1,0.5-1.6,0.5c-0.7,0-1.2-0.3-1.3-0.4l-0.7-0.6c-1.2-1.2-2.4-2.3-3.3-3.1c-0.2-0.2-0.4-0.4-0.7-0.4
		c-0.1,0-0.2,0-0.3,0.1c-0.1,0.1-0.2,0.3,0.1,0.7c0.1,0.1,0.2,0.3,0.2,0.3l3.3,3.6c0,0,0.7,0.8,0.1,1.6l-0.1,0.1
		c-0.1,0.1-0.2,0.2-0.3,0.3c-0.5,0.5-1.3,0.5-1.6,0.5c-0.1,0-0.3,0-0.4,0C43.3,37,43.1,37,43,36.8l0,0c-0.2-0.2-1.8-1.8-3.2-3
		c-0.2-0.1-0.4-0.3-0.6-0.3c-0.1,0-0.2,0-0.3,0.1c-0.3,0.3,0.1,0.7,0.3,0.9l2.8,3.1c0,0,0,0.1-0.1,0.2c-0.1,0.1-0.4,0.5-1.4,0.6
		c-0.1,0-0.3,0-0.4,0c-1,0-2.1-0.5-2.7-0.8c0.3-0.5,0.4-1.2,0.4-1.8c0-2.3-1.8-4.1-4.1-4.2c0,0-0.1,0-0.1,0c0.1-1-0.1-3-2.1-3.9
		c-0.6-0.3-1.2-0.4-1.7-0.4c-0.4,0-0.9,0.1-1.3,0.2c-0.4-0.8-1.1-1.4-2-1.7c-0.5-0.2-1-0.3-1.5-0.3c-0.8,0-1.6,0.3-2.3,0.7
		c-0.7-0.8-1.7-1.3-2.7-1.3c-0.9,0-1.8,0.4-2.5,1c-0.9-0.7-4.3-2.8-13.4-4.9c-0.4-0.1-1.4-0.4-2.1-0.6c-0.1,0.5-0.2,1-0.2,1.5
		c0,0,1.7,0.4,2,0.5c9.4,2.1,12.5,4.2,13,4.7c-0.2,0.4-0.3,0.9-0.3,1.3c0,1.9,1.6,3.5,3.5,3.5c0.2,0,0.4,0,0.7-0.1
		c0.3,1.4,1.2,2.5,2.6,3.1c0.4,0.1,0.8,0.3,1.3,0.3c0.3,0,0.5,0,0.8-0.1c0.3,0.7,0.9,1.5,2.2,2c0.5,0.2,0.9,0.3,1.4,0.3
		c0.4,0,0.7-0.1,1.1-0.2c0.7,1.6,2.1,2.6,3.8,2.6c1.1,0,2.2-0.5,3-1.3c0.7,0.4,2.1,1,3.5,1c0.2,0,0.4,0,0.5,0
		c1.4-0.2,2.1-0.7,2.4-1.2c0-0.1,0.1-0.1,0.1-0.3c0.3,0.1,0.7,0.2,1.1,0.2c0.8,0,1.5-0.3,2.3-0.8c0.7-0.5,1.3-1.3,1.3-2v0
		c0.3,0,0.5,0.1,0.8,0.1c0.8,0,1.6-0.3,2.3-0.7c1.4-0.9,1.7-2.2,1.7-3c0.3,0,0.5,0.1,0.8,0.1c0.8,0,1.5-0.2,2.2-0.7
		c0.9-0.6,1.4-1.4,1.5-2.5c0.1-0.7-0.1-1.4-0.5-2c2.4-1,7.9-3.1,14.5-4.5c0-0.5-0.1-1-0.2-1.5C62.8,22.8,56.9,25.3,55.5,25.9z
		 M33.5,38.7c-1.5,0-2.8-1.2-2.8-2.7c0-0.1,0-0.5-0.3-0.5c-0.1,0-0.2,0.1-0.4,0.2c-0.3,0.3-0.8,0.6-1.4,0.6c-0.3,0-0.6-0.1-0.9-0.2
		c-1.6-0.7-1.6-1.8-1.6-2.2c0-0.1,0-0.3-0.1-0.3l-0.1-0.1h-0.1c-0.1,0-0.2,0-0.3,0.1c-0.5,0.3-0.9,0.5-1.4,0.5c-0.3,0-0.5,0-0.8-0.1
		c-2.1-0.8-2-2.8-1.8-3.4c0-0.1,0-0.2-0.1-0.3l-0.1-0.1l-0.1,0.1c-0.4,0.4-0.9,0.6-1.5,0.6c-1.2,0-2.2-1-2.2-2.2s1-2.2,2.2-2.2
		c1.1,0,2,0.8,2.2,1.9l0.1,0.6l0.3-0.5c0-0.1,0.9-1.4,2.6-1.4c0.3,0,0.7,0,0.9,0.1c1.3,0.4,1.5,1.6,1.6,2.1c0,0.3,0.2,0.3,0.3,0.3
		c0.1,0,0.2-0.1,0.3-0.1c0.3-0.3,0.8-0.7,1.6-0.7c0.4,0,0.8,0.1,1.2,0.3c2.1,0.9,1.1,3.5,1.1,3.5c-0.2,0.4-0.2,0.6,0,0.8l0.1,0h0.1
		c0.1,0,0.2,0,0.4-0.1c0.3-0.1,0.7-0.3,1.1-0.3l0,0c1.6,0,2.8,1.3,2.8,2.8C36.3,37.4,35,38.7,33.5,38.7z"/>
</g>
</svg>
