<?xml version="1.0" encoding="utf-8"?>
<!-- Generator: Adobe Illustrator 25.2.1, SVG Export Plug-In . SVG Version: 6.00 Build 0)  -->
<svg version="1.1" id="Capa_1" xmlns="http://www.w3.org/2000/svg" xmlns:xlink="http://www.w3.org/1999/xlink" x="0px" y="0px"
	 viewBox="0 0 70 70" style="enable-background:new 0 0 70 70;" xml:space="preserve">
<style type="text/css">
	.st0{fill:#002E6D;}
	.st1{fill:#FFE800;}
	.st2{fill:#FFFFFF;}
</style>
<g>
	<path class="st0" d="M69.7,33.4C69.7,18.9,54.1,7,35,7S0.3,18.9,0.3,33.4c0,0.4,0,1.5,0,1.6c0,15.4,13.5,28,34.6,28
		c21.2,0,34.6-12.5,34.6-28C69.7,34.4,69.7,34.1,69.7,33.4z"/>
	<path class="st1" d="M68.4,33.4c0,13.8-14.9,24.8-33.3,24.8S1.6,47.2,1.6,33.4S16.6,8.6,35,8.6C53.4,8.6,68.4,19.7,68.4,33.4z"/>
	<g>
		<path class="st2" d="M23.9,25.6c0,0-0.4,0.4-0.1,0.8c0.5,0.8,2.1,1.2,3.7,0.8c1-0.2,2.2-1.5,3.5-2.6c1.3-1.2,2.6-2.5,3.9-2.9
			c1.3-0.6,2.3-0.3,2.9-0.1c0.7,0.2,1.4,0.8,2.6,1.8c2.3,2,11.4,11.3,13.1,13c1.2-0.7,6.9-3.5,14.7-5.5c-0.7-4.8-3.2-9.2-7-12.8
			c-5.3,2.6-11.7,3.9-18,0.3c0,0-3.5-1.9-6.8-1.8c-5,0.1-7.2,2.7-9.5,5.4L23.9,25.6z"/>
		<path class="st2" d="M53.1,37.3c-0.1-0.1-10.7-11-13.2-13.1c-1.3-1.2-2.2-1.6-3-1.7c-0.4-0.1-1,0-1.4,0.1
			c-1.2,0.3-2.6,1.5-3.9,2.7s-2.6,2.5-3.8,2.8c-1.5,0.4-3.4-0.1-4.2-0.8c-0.4-0.3-0.6-0.6-0.7-0.9c-0.3-0.9,0.3-1.5,0.4-1.6l3-3.7
			c0.4-0.4,0.7-0.8,1.1-1.1c-1,0.1-1.8,0.4-2.7,0.7c-1.1,0.3-2.1,0.7-3.2,0.7c-0.5,0-2.8-0.4-3.2-0.6c-2.7-0.9-5-1.7-8.5-3.6
			c-4.2,3.7-7,8.2-7.9,13.2c0.6,0.2,1.5,0.6,2,0.7c9.5,2.5,12.5,4.9,13,5.5c0.6-0.8,1.4-1.2,2.4-1.2c1.1,0,2,0.6,2.6,1.6
			c0.6-0.4,1.2-0.9,2.2-0.9c0.5,0,0.9,0.1,1.3,0.3c1.1,0.4,1.6,1.2,1.9,2c0.4-0.2,0.8-0.3,1.3-0.3c0.5,0,1.1,0.1,1.5,0.4
			c1.7,0.9,2,2.9,1.9,4.4c0.1,0,0.3,0,0.4,0c2.1,0,3.7,2,3.7,4.4c0,0.8-0.2,1.5-0.5,2c0.6,0.3,2,1.2,3.3,1c1-0.1,1.3-0.6,1.5-0.8
			c0.1-0.1,0.2-0.3,0.1-0.4l-2.7-3.5c0,0-0.5-0.4-0.3-0.7c0.1-0.2,0.4,0.1,0.7,0.3c1.3,1.3,3,3.4,3,3.4s0.1,0.3,0.8,0.4
			c0.5,0.1,1.4,0,2.1-0.6c0.2-0.1,0.3-0.3,0.5-0.6l0,0c0.7-1-0.1-2-0.1-2l-3.2-4c0,0-0.5-0.4-0.3-0.7c0.1-0.1,0.4,0.1,0.7,0.3
			c1,1,2.4,2.6,3.7,4.1c0.3,0.2,1.4,1,3-0.1c1-0.8,1.2-1.6,1.2-2.2c-0.1-0.9-0.7-1.6-0.7-1.6l-4.2-5c0,0-0.5-0.4-0.3-0.7
			c0.1-0.2,0.4,0.1,0.7,0.3c1.3,1.3,5,5.3,5,5.3s1.3,1.1,2.9-0.1c0.6-0.4,1-1,1-1.8C53.9,38.1,53.1,37.3,53.1,37.3z"/>
		<path class="st2" d="M32.5,43.7c-0.7,0-1.3,0.4-1.5,0.3c0,0,0-0.3,0.1-0.6c0.1-0.1,1-3.2-1.2-4.3c-1.6-0.8-2.6,0.1-3,0.6
			c-0.1,0.1-0.1,0.1-0.1,0c0-0.6-0.3-2-1.6-2.6c-2-0.8-3.3,0.9-3.6,1.5c-0.1-1.3-1.2-2.3-2.3-2.3c-1.2,0-2.3,1.2-2.3,2.7
			c0,1.5,1.1,2.7,2.3,2.7c0.7,0,1.2-0.3,1.6-0.8c0,0,0,0,0,0.1c-0.1,0.7-0.3,3.1,1.9,4c0.9,0.4,1.6,0.1,2.2-0.4
			c0.2-0.1,0.2-0.1,0.2,0.1c-0.1,0.7,0,2,1.6,2.8c1.2,0.6,1.9,0,2.4-0.6c0.2-0.2,0.3-0.2,0.3,0.1c0.1,1.8,1.3,3.2,2.9,3.2
			c1.6,0,2.9-1.6,2.9-3.4C35.3,45.2,34.1,43.7,32.5,43.7z"/>
	</g>
	<path class="st0" d="M53.5,36c-3.3-3.4-10.9-11.1-13-12.9c-1.2-1-2-1.6-2.7-1.8c-0.3-0.1-0.8-0.2-1.4-0.2c-0.5,0-1.1,0.1-1.6,0.3
		c-1.4,0.5-2.7,1.8-4,2.9l-0.1,0.1c-1.2,1.1-2.4,2.3-3.4,2.5c-0.4,0.1-0.9,0.2-1.3,0.2c-1.1,0-2-0.3-2.3-0.9c-0.1-0.1,0-0.2,0.1-0.5
		l0,0l2.9-3.7c2.2-2.6,4.4-5.2,9.4-5.3c0.1,0,0.2,0,0.3,0c3.1,0,6.2,1.6,6.6,1.8c2.9,1.6,5.9,2.5,8.9,2.5c3.2,0,6.4-0.9,9.7-2.7
		c-0.4-0.3-0.8-0.8-1.2-1.1c-3,1.5-5.8,2.3-8.6,2.3s-5.6-0.8-8.3-2.4c-0.1-0.1-3.6-1.9-7-1.9c-0.1,0-0.2,0-0.3,0
		c-4.2,0.1-6.6,1.8-8.1,3.4c-1.5,0-2.9,0.5-4.1,0.9c-1.1,0.3-1.9,0.7-2.9,0.7c-0.4,0-1,0-1.1,0c-1,0-6.2-1.5-10.2-3.3
		c-0.4,0.1-0.8,0.6-1.2,0.9c4.2,2,9.5,3.6,11.1,3.7c0.5,0,1,0.1,1.4,0.1c1.1,0,2.1-0.3,3.2-0.7c0.7-0.2,1.3-0.5,2-0.6
		c-0.2,0.2-0.4,0.5-0.6,0.7l-3,3.7c-0.3,0.3-0.8,1-0.4,1.9c0.1,0.3,0.4,0.7,0.8,1c0.7,0.6,1.9,0.9,3.2,0.9c0.5,0,0.9,0,1.3-0.1
		c1.3-0.3,2.5-1.6,3.9-2.8c1.1-1,2.6-2.4,3.9-2.7c0.4-0.1,0.8-0.1,1.1-0.1c0.1,0,0.2,0,0.3,0c0.8,0.1,1.5,0.5,2.9,1.6
		c2.4,2.1,13.2,13.1,13.3,13.2c0,0,0.7,0.7,0.7,1.8c0,0.7-0.3,1.2-0.9,1.6c-0.5,0.3-1,0.6-1.4,0.6c-0.8,0-1.3-0.5-1.3-0.5
		s-3.8-3.9-5-5.3c-0.2-0.2-0.4-0.5-0.7-0.5c-0.1,0-0.2,0-0.3,0.1c-0.2,0.3,0,0.8,0.3,1l4.2,5.1c0,0,0.5,0.6,0.6,1.4
		c0,0.9-0.3,1.6-1,2c-0.5,0.5-1,0.6-1.5,0.6c-0.7,0-1.2-0.3-1.3-0.5l-0.7-0.7c-1.2-1.4-2.3-2.6-3.2-3.5c-0.2-0.2-0.4-0.5-0.7-0.5
		c-0.1,0-0.2,0-0.3,0.1c-0.1,0.1-0.2,0.3,0.1,0.8c0.1,0.1,0.2,0.3,0.2,0.3l3.2,4.1c0,0,0.7,0.9,0.1,1.8l-0.1,0.1
		c-0.1,0.1-0.2,0.2-0.3,0.3c-0.5,0.6-1.3,0.6-1.5,0.6c-0.1,0-0.3,0-0.4,0c-0.3,0-0.5,0-0.6-0.2l0,0c-0.2-0.2-1.7-2-3.1-3.4
		c-0.2-0.1-0.4-0.3-0.6-0.3c-0.1,0-0.2,0-0.3,0.1c-0.3,0.3,0.1,0.8,0.3,1l2.7,3.5c0,0,0,0.1-0.1,0.2C40.3,49.5,40,50,39,50.1
		c-0.1,0-0.3,0-0.4,0c-1,0-2-0.6-2.6-0.9c0.3-0.6,0.4-1.4,0.4-2c0-2.6-1.7-4.6-4-4.7h-0.1c0.1-1.1-0.1-3.4-2-4.4
		c-0.6-0.3-1.2-0.5-1.6-0.5c-0.4,0-0.9,0.1-1.3,0.2c-0.4-0.9-1.1-1.6-1.9-1.9c-0.5-0.2-1-0.3-1.4-0.3c-0.8,0-1.5,0.3-2.2,0.8
		c-0.7-0.9-1.6-1.5-2.6-1.5c-0.9,0-1.7,0.5-2.4,1.1c-0.9-0.8-4.2-3.2-12.9-5.5c-0.4-0.1-1.4-0.5-2-0.7c-0.1,0.6-0.2,1.1-0.2,1.7
		c0,0,1.6,0.5,1.9,0.6c9.1,2.4,12.1,4.7,12.5,5.3c-0.2,0.5-0.3,1-0.3,1.5c0,2.1,1.5,3.9,3.4,3.9c0.2,0,0.4,0,0.7-0.1
		c0.3,1.6,1.2,2.8,2.5,3.5c0.4,0.1,0.8,0.3,1.3,0.3c0.3,0,0.5,0,0.8-0.1c0.3,0.8,0.9,1.7,2.1,2.3c0.5,0.2,0.9,0.3,1.4,0.3
		c0.4,0,0.7-0.1,1.1-0.2c0.7,1.8,2,2.9,3.7,2.9c1.1,0,2.1-0.6,2.9-1.5c0.7,0.5,2,1.1,3.4,1.1c0.2,0,0.4,0,0.5,0
		c1.4-0.2,2-0.8,2.3-1.4c0-0.1,0.1-0.1,0.1-0.3c0.3,0.1,0.7,0.2,1.1,0.2c0.8,0,1.4-0.3,2.2-0.9c0.7-0.6,1.3-1.5,1.3-2.3l0,0
		c0.3,0,0.5,0.1,0.8,0.1c0.8,0,1.5-0.3,2.2-0.8c1.4-1,1.6-2.5,1.6-3.4c0.3,0,0.5,0.1,0.8,0.1c0.8,0,1.4-0.2,2.1-0.8
		c0.9-0.7,1.4-1.6,1.4-2.8c0.1-0.8-0.1-1.6-0.5-2.3c2.3-1.1,7.6-3.5,14-5.1c0-0.6-0.1-1.1-0.2-1.7C60.5,32.5,54.8,35.3,53.5,36z
		 M32.2,50.4c-1.4,0-2.7-1.4-2.7-3c0-0.1,0-0.6-0.3-0.6c-0.1,0-0.2,0.1-0.4,0.2c-0.3,0.3-0.8,0.7-1.4,0.7c-0.3,0-0.6-0.1-0.9-0.2
		c-1.5-0.8-1.5-2-1.5-2.5c0-0.1,0-0.3-0.1-0.3l-0.1-0.1h-0.1c-0.1,0-0.2,0-0.3,0.1c-0.5,0.3-0.9,0.6-1.4,0.6c-0.3,0-0.5,0-0.8-0.1
		c-2-0.9-1.9-3.2-1.7-3.8c0-0.1,0-0.2-0.1-0.3l-0.1-0.1L20.4,41c-0.4,0.5-0.9,0.7-1.4,0.7c-1.2,0-2.1-1.1-2.1-2.5
		c0-1.4,1-2.5,2.1-2.5c1.1,0,1.9,0.9,2.1,2.1l0.1,0.7l0.3-0.6c0-0.1,0.9-1.6,2.5-1.6c0.3,0,0.7,0,0.9,0.1c1.3,0.5,1.4,1.8,1.5,2.4
		c0,0.3,0.2,0.3,0.3,0.3s0.2-0.1,0.3-0.1c0.3-0.3,0.8-0.8,1.5-0.8c0.4,0,0.8,0.1,1.2,0.3c2,1,1.1,3.9,1.1,3.9
		c-0.2,0.5-0.2,0.7,0,0.9h0.1h0.1c0.1,0,0.2,0,0.4-0.1c0.3-0.1,0.7-0.3,1.1-0.3l0,0c1.5,0,2.7,1.5,2.7,3.2
		C35,49,33.7,50.4,32.2,50.4z"/>
</g>
</svg>
